<svg xmlns="http://www.w3.org/2000/svg" xmlns:xlink="http://www.w3.org/1999/xlink" width="500" zoomAndPan="magnify" viewBox="0 0 375 374.999991" height="500" preserveAspectRatio="xMidYMid meet" version="1.0"><defs><clipPath id="9e3285870c"><path d="M 115 93.257812 L 260 93.257812 L 260 223.757812 L 115 223.757812 Z M 115 93.257812 " clip-rule="nonzero"/></clipPath><clipPath id="92d43131d8"><path d="M 104.515625 180 L 113 180 L 113 209 L 104.515625 209 Z M 104.515625 180 " clip-rule="nonzero"/></clipPath><clipPath id="8d943f3be5"><path d="M 262 180 L 270.265625 180 L 270.265625 209 L 262 209 Z M 262 180 " clip-rule="nonzero"/></clipPath><clipPath id="3846e8631f"><path d="M 145 116.222656 L 220 116.222656 L 220 255 L 145 255 Z M 145 116.222656 " clip-rule="nonzero"/></clipPath></defs><g clip-path="url(#9e3285870c)"><path fill="#ffffff" d="M 258.828125 176.652344 C 259.308594 169.824219 260.582031 135.449219 239.703125 112.839844 C 227.378906 99.496094 209.859375 92.9375 187.621094 93.375 C 165.390625 92.957031 147.859375 99.496094 135.535156 112.839844 C 115.1875 134.875 115.878906 168.089844 116.375 176.082031 C 116.082031 177.1875 115.921875 178.351562 115.921875 179.550781 L 115.921875 210.203125 C 115.921875 217.636719 121.949219 223.664062 129.382812 223.664062 L 138.730469 223.664062 C 146.167969 223.664062 152.195312 217.636719 152.195312 210.203125 L 152.195312 179.550781 C 152.195312 172.117188 146.167969 166.089844 138.730469 166.089844 L 129.386719 166.089844 C 128.371094 166.089844 127.382812 166.207031 126.429688 166.417969 C 126.941406 154.195312 129.910156 133.785156 142.992188 119.648438 C 153.289062 108.523438 168.296875 103.066406 187.519531 103.46875 L 187.621094 103.472656 L 187.722656 103.46875 C 206.953125 103.085938 221.953125 108.523438 232.25 119.648438 C 245.347656 133.800781 248.308594 154.242188 248.8125 166.460938 C 247.804688 166.21875 246.757812 166.089844 245.679688 166.089844 L 236.332031 166.089844 C 228.894531 166.089844 222.871094 172.117188 222.871094 179.550781 L 222.871094 210.203125 C 222.871094 217.636719 228.894531 223.664062 236.332031 223.664062 L 245.679688 223.664062 C 253.113281 223.664062 259.140625 217.636719 259.140625 210.203125 L 259.140625 179.550781 C 259.140625 178.554688 259.03125 177.585938 258.828125 176.652344 Z M 258.828125 176.652344 " fill-opacity="1" fill-rule="nonzero"/></g><g clip-path="url(#92d43131d8)"><path fill="#ffffff" d="M 112.652344 180.296875 L 104.515625 185.0625 L 104.515625 203.289062 L 112.652344 208.617188 " fill-opacity="1" fill-rule="nonzero"/></g><g clip-path="url(#8d943f3be5)"><path fill="#ffffff" d="M 262.132812 180.296875 L 270.265625 185.0625 L 270.265625 203.289062 L 262.132812 208.617188 " fill-opacity="1" fill-rule="nonzero"/></g><g clip-path="url(#3846e8631f)"><path fill="#ffffff" d="M 182.132812 116.222656 C 190.496094 136.621094 199.625 148.601562 205.449219 155.230469 C 210.046875 160.464844 235.238281 183.742188 206.203125 220.121094 C 223.453125 184.5 217.246094 163.386719 186.402344 150.363281 L 186.402344 225.761719 C 187.371094 256.816406 155.46875 258.714844 147.6875 250.457031 C 139.652344 241.925781 158.597656 213.625 182.132812 222.917969 Z M 182.132812 116.222656 " fill-opacity="1" fill-rule="evenodd"/></g></svg>